<?xml version="1.0" encoding="utf-8"?>
<!-- Generator: Adobe Illustrator 18.1.1, SVG Export Plug-In . SVG Version: 6.00 Build 0)  -->
<!DOCTYPE svg PUBLIC "-//W3C//DTD SVG 1.1//EN" "http://www.w3.org/Graphics/SVG/1.1/DTD/svg11.dtd">
<svg version="1.1" xmlns="http://www.w3.org/2000/svg" xmlns:xlink="http://www.w3.org/1999/xlink" x="0px" y="0px"
	 viewBox="0 0 1440 936" style="enable-background:new 0 0 1440 936;" xml:space="preserve">
<style type="text/css">
	.st0{fill:#3A3A3A;}
	.st1{fill:#FFFFFF;}
</style>
<g id="background">
	<rect x="-6.9" class="st0" width="1446.9" height="936"/>
</g>
<g id="cat">
	<path class="st1" d="M848.9,457.4c9.4-11.6,15.9-45.8-22.5-146.5c-0.7-1.9-3.1-2.6-4.7-1.3c-7.1,5.5-25.8,24.9-56.7,90
		c-1.7,3.6-0.9,7.9,2.1,10.5c12.3,11,44.6,39.3,64.8,50.4C837.7,463.6,844.8,462.4,848.9,457.4z"/>
	<path class="st1" d="M573.8,457.4c-9.4-11.6-15.9-45.8,22.5-146.5c0.7-1.9,3.1-2.6,4.7-1.3c7.1,5.5,25.8,24.9,56.7,90
		c1.7,3.6,0.9,7.9-2.1,10.5c-12.3,11-44.6,39.3-64.8,50.4C585.1,463.6,577.9,462.4,573.8,457.4z"/>
	<path class="st1" d="M677.2,514.2c0,24.3-22.3,33-46.5,33s-43.8-11.7-43.8-35.9c0-24.3,20.9-43.5,45.2-43.5
		S677.2,489.9,677.2,514.2z"/>
	<path class="st1" d="M836.5,514.2c0,24.3-22.3,33-46.5,33c-24.3,0-43.8-11.7-43.8-35.9c0-24.3,20.9-43.5,45.2-43.5
		S836.5,489.9,836.5,514.2z"/>
	<path class="st1" d="M706.2,548.9c-5-2.9-13-7.9,0.4-11.1c2.4-0.6,5-0.7,7.4-0.3c6.2,1,17.1,3.6,8.2,9.8c-7.3,5.1-9.2,4.7-11.6,4.1
		C709,551,707.6,549.7,706.2,548.9z"/>
	<ellipse class="st0" cx="649.8" cy="512.2" rx="8.7" ry="17.7"/>
	<ellipse class="st0" cx="775" cy="512.2" rx="8.7" ry="17.7"/>
	<g>
	</g>
	<g>
	</g>
	<g>
	</g>
	<g>
	</g>
	<g>
	</g>
	<g>
	</g>
	<g>
	</g>
	<g>
	</g>
	<g>
	</g>
	<g>
	</g>
	<g>
	</g>
	<g>
	</g>
	<g>
	</g>
	<g>
	</g>
	<g>
	</g>
</g>
</svg>
