<?xml version="1.0" encoding="utf-8"?>
<!-- Generator: Adobe Illustrator 18.1.1, SVG Export Plug-In . SVG Version: 6.00 Build 0)  -->
<!DOCTYPE svg PUBLIC "-//W3C//DTD SVG 1.1//EN" "http://www.w3.org/Graphics/SVG/1.1/DTD/svg11.dtd">
<svg version="1.1" id="Layer_1" xmlns="http://www.w3.org/2000/svg" xmlns:xlink="http://www.w3.org/1999/xlink" x="0px" y="0px"
	 viewBox="0 0 302.4 258.3" style="enable-background:new 0 0 302.4 258.3;" xml:space="preserve">
<style type="text/css">
	.st0{fill:#FFFFFF;}
	.st1{fill:#3A3B3B;}
</style>
<path class="st0" d="M289.2,156.5c9.4-11.7,16-46.1-22.6-147.5c-0.7-1.9-3.1-2.6-4.7-1.3c-7.2,5.6-26,25.1-57.1,90.6
	c-1.7,3.6-0.9,7.9,2.1,10.6c12.4,11.1,44.9,39.5,65.3,50.7C277.9,162.7,285.1,161.5,289.2,156.5z"/>
<path class="st0" d="M12.3,156.5c-9.4-11.7-16-46.1,22.6-147.5C35.6,7,38,6.3,39.6,7.6c7.2,5.6,26,25.1,57.1,90.6
	c1.7,3.6,0.9,7.9-2.1,10.6c-12.4,11.1-44.9,39.5-65.3,50.7C23.6,162.7,16.4,161.5,12.3,156.5z"/>
<path class="st0" d="M116.4,213.6c0,24.4-22.4,33.3-46.9,33.3s-44.1-11.7-44.1-36.2S46.4,167,70.9,167S116.4,189.2,116.4,213.6z"/>
<path class="st0" d="M276.8,213.6c0,24.4-22.4,33.3-46.9,33.3s-44.1-11.7-44.1-36.2s21.1-43.8,45.5-43.8S276.8,189.2,276.8,213.6z"
	/>
<path class="st0" d="M145.5,248.6c-5-2.9-13-8,0.4-11.2c2.4-0.6,5-0.7,7.5-0.3c6.3,1,17.2,3.6,8.3,9.8c-7.4,5.1-9.3,4.8-11.7,4.2
	C148.4,250.7,146.9,249.4,145.5,248.6z"/>
<ellipse class="st1" cx="88.8" cy="211.6" rx="8.8" ry="17.8"/>
<ellipse class="st1" cx="214.8" cy="211.6" rx="8.8" ry="17.8"/>
<g>
</g>
<g>
</g>
<g>
</g>
<g>
</g>
<g>
</g>
<g>
</g>
</svg>
