<?xml version="1.0" encoding="utf-8"?>
<!-- Generator: Adobe Illustrator 18.1.1, SVG Export Plug-In . SVG Version: 6.00 Build 0)  -->
<!DOCTYPE svg PUBLIC "-//W3C//DTD SVG 1.1//EN" "http://www.w3.org/Graphics/SVG/1.1/DTD/svg11.dtd">
<svg version="1.1" id="Layer_2" xmlns="http://www.w3.org/2000/svg" xmlns:xlink="http://www.w3.org/1999/xlink" x="0px" y="0px"
	 viewBox="0 0 508.3 497.8" style="enable-background:new 0 0 508.3 497.8;" xml:space="preserve">
<style type="text/css">
	.st0{fill:#FFFFFF;}
</style>
<ellipse transform="matrix(0.9425 -0.3342 0.3342 0.9425 -75.4124 39.0773)" class="st0" cx="75.9" cy="238.7" rx="64.3" ry="91"/>
<ellipse transform="matrix(-0.9425 -0.3342 0.3342 -0.9425 754.6084 668.0547)" class="st0" cx="434.8" cy="269.1" rx="64.3" ry="91"/>
<ellipse transform="matrix(0.9805 -0.1967 0.1967 0.9805 -17.6826 38.8319)" class="st0" cx="186.6" cy="108.4" rx="64.3" ry="100.6"/>
<ellipse transform="matrix(-0.9805 -0.1967 0.1967 -0.9805 654.0715 292.2585)" class="st0" cx="341.6" cy="113.6" rx="64.3" ry="100.6"/>
<path class="st0" d="M237.4,480.3c-18.7,5.4-66.5,17.5-112.1,13.9c0,0-58.3-10-34.6-77.4c0,0,67.4-145.8,154.9-159.4
	c0,0,83.8-7.3,149.4,137.6c0,0,33.7,60.6-12.1,88.4c-15.4,9.4-34.3,11.3-51.6,6.3c-25.2-7.3-70.4-19.1-83.2-13.5
	C244.5,477.6,241,479.2,237.4,480.3z"/>
<g>
</g>
<g>
</g>
<g>
</g>
<g>
</g>
<g>
</g>
<g>
</g>
</svg>
